<svg width="693" height="230" viewBox="0 0 693 230" fill="none" xmlns="http://www.w3.org/2000/svg">
<path d="M116.4 74C111.6 74 106.4 73.5333 100.8 72.6C95.3333 71.6667 89.6 70.5333 83.6 69.2V200H62V66C60.5333 65.7333 59.1333 65.6 57.8 65.6C56.6 65.6 55.3333 65.6 54 65.6C42.8 65.6 34.2 67.6667 28.2 71.8C22.3333 75.8 19.4 83.1333 19.4 93.8C19.4 101.8 20.2667 107.933 22 112.2C23.8667 116.333 25.7333 119.467 27.6 121.6C24.2667 121.6 21.1333 121.133 18.2 120.2C15.4 119.133 12.9333 117.467 10.8 115.2C8.66667 112.933 7 110 5.8 106.4C4.6 102.667 4 98.0667 4 92.6C4 87.1333 5.06667 81.8667 7.2 76.8C9.33333 71.7333 12.7333 67.2667 17.4 63.4C22.2 59.4 28.3333 56.2 35.8 53.8C43.4 51.4 52.6667 50.2 63.6 50.2C68.9333 50.2 73.7333 50.4667 78 51C82.4 51.4 86.4667 51.9333 90.2 52.6C94.0667 53.1333 97.8667 53.6667 101.6 54.2C105.333 54.6 109.267 54.8 113.4 54.8C119 54.8 123.667 54.4 127.4 53.6C131.267 52.6667 134.467 51.6667 137 50.6C137.4 53 137.6 55.2667 137.6 57.4C137.6 68.4667 130.533 74 116.4 74ZM183 100V168C183 169.333 183.067 171 183.2 173C183.333 175 183.667 177 184.2 179C184.867 180.867 185.8 182.533 187 184C188.2 185.333 189.867 186 192 186C198.533 186 203.333 178.733 206.4 164.2H213.8C212.333 172.6 210.467 179.267 208.2 184.2C205.933 189 203.533 192.667 201 195.2C198.467 197.733 195.867 199.333 193.2 200C190.533 200.8 188.133 201.2 186 201.2C182.933 201.2 180.267 200.667 178 199.6C175.867 198.533 174 197.133 172.4 195.4C170.933 193.667 169.733 191.667 168.8 189.4C167.867 187.133 167.133 184.733 166.6 182.2C164.6 187.4 161.333 191.867 156.8 195.6C152.4 199.333 147 201.2 140.6 201.2C136.6 201.2 132.533 200.4 128.4 198.8C124.4 197.2 120.733 194.6 117.4 191C114.2 187.267 111.533 182.533 109.4 176.8C107.4 170.933 106.4 163.8 106.4 155.4C106.4 149.267 107.067 142.867 108.4 136.2C109.867 129.533 112.133 123.467 115.2 118C118.267 112.533 122.2 108 127 104.4C131.8 100.8 137.6 99 144.4 99C146 99 147.667 99.2 149.4 99.6C151.267 99.8667 153 100.4 154.6 101.2C156.333 102 157.933 103.133 159.4 104.6C160.867 105.933 162.067 107.6 163 109.6V100H183ZM145.6 186C147.6 186 149.6 185.467 151.6 184.4C153.733 183.2 155.6 181.667 157.2 179.8C158.933 177.8 160.333 175.467 161.4 172.8C162.467 170.133 163 167.267 163 164.2V118.6C162.067 116.467 160.6 114.533 158.6 112.8C156.733 110.933 154.267 110 151.2 110C146.933 110 143.267 111.467 140.2 114.4C137.133 117.2 134.667 120.8 132.8 125.2C130.933 129.467 129.533 134.2 128.6 139.4C127.8 144.467 127.4 149.333 127.4 154C127.4 165.467 128.933 173.667 132 178.6C135.2 183.533 139.733 186 145.6 186ZM226.47 60V168C226.47 169.333 226.537 171 226.67 173C226.804 175 227.137 177 227.67 179C228.337 180.867 229.27 182.533 230.47 184C231.67 185.333 233.337 186 235.47 186C242.004 186 246.804 178.733 249.87 164.2H257.27C255.804 172.6 253.937 179.267 251.67 184.2C249.404 189 247.004 192.667 244.47 195.2C241.937 197.733 239.337 199.333 236.67 200C234.004 200.8 231.604 201.2 229.47 201.2C224.804 201.2 221.004 200.333 218.07 198.6C215.137 196.733 212.804 194.4 211.07 191.6C209.337 188.8 208.137 185.667 207.47 182.2C206.804 178.733 206.47 175.4 206.47 172.2V62.8L226.47 60ZM269.434 60V132.6L303.834 100H323.234L289.834 127H291.834C297.834 127 302.568 128 306.034 130C309.634 132 312.368 134.6 314.234 137.8C316.234 140.867 317.501 144.267 318.034 148C318.701 151.6 319.034 155 319.034 158.2C319.034 161 318.901 164.2 318.634 167.8C318.501 171.267 318.434 173.933 318.434 175.8C318.434 177 318.501 178.2 318.634 179.4C318.901 180.6 319.301 181.733 319.834 182.8C320.501 183.733 321.434 184.533 322.634 185.2C323.968 185.733 325.701 186 327.834 186C328.901 186 330.301 185.933 332.034 185.8C333.768 185.533 335.168 185.067 336.234 184.4C336.234 184.933 336.234 185.467 336.234 186C336.368 186.4 336.434 186.8 336.434 187.2C336.434 190.133 335.901 192.533 334.834 194.4C333.768 196.267 332.434 197.733 330.834 198.8C329.234 199.733 327.501 200.333 325.634 200.6C323.768 201 322.034 201.2 320.434 201.2C316.568 201.2 313.234 200.6 310.434 199.4C307.634 198.2 305.301 196.6 303.434 194.6C301.701 192.467 300.368 190.067 299.434 187.4C298.634 184.6 298.234 181.6 298.234 178.4C298.234 177.867 298.234 176.733 298.234 175C298.234 173.133 298.234 171.2 298.234 169.2C298.368 167.2 298.434 165.333 298.434 163.6C298.434 161.733 298.434 160.467 298.434 159.8C298.434 152.867 297.168 148.2 294.634 145.8C292.101 143.4 289.168 142.2 285.834 142.2C282.368 142.2 279.234 143.333 276.434 145.6C273.768 147.867 271.434 151.867 269.434 157.6V200H249.434V62.8L269.434 60ZM408.697 100V168C408.697 169.333 408.764 171 408.897 173C409.03 175 409.364 177 409.897 179C410.564 180.867 411.497 182.533 412.697 184C413.897 185.333 415.564 186 417.697 186C424.23 186 429.03 178.733 432.097 164.2H439.497C438.03 172.6 436.164 179.267 433.897 184.2C431.63 189 429.23 192.667 426.697 195.2C424.164 197.733 421.564 199.333 418.897 200C416.23 200.8 413.83 201.2 411.697 201.2C407.03 201.2 403.23 200.333 400.297 198.6C397.364 196.733 395.03 194.4 393.297 191.6C391.564 188.8 390.364 185.667 389.697 182.2C389.03 178.733 388.697 175.4 388.697 172.2V100H408.697ZM385.097 71.2C385.097 67.6 386.364 64.4667 388.897 61.8C391.43 59.1333 394.564 57.8 398.297 57.8C401.897 57.8 405.03 59.1333 407.697 61.8C410.364 64.4667 411.697 67.6 411.697 71.2C411.697 74.9333 410.364 78.0667 407.697 80.6C405.03 83.1333 401.897 84.4 398.297 84.4C394.564 84.4 391.43 83.1333 388.897 80.6C386.364 78.0667 385.097 74.9333 385.097 71.2ZM452.056 69.6V100H467.456V107H452.056V168C452.056 169.6 452.056 171.467 452.056 173.6C452.19 175.6 452.523 177.533 453.056 179.4C453.723 181.267 454.59 182.867 455.656 184.2C456.856 185.4 458.59 186 460.856 186C461.923 186 463.19 185.867 464.656 185.6C466.256 185.333 467.456 185.067 468.256 184.8C468.39 185.467 468.456 186.067 468.456 186.6C468.59 187.133 468.656 187.733 468.656 188.4C468.656 190.667 468.123 192.667 467.056 194.4C466.123 196 464.856 197.333 463.256 198.4C461.656 199.333 459.856 200 457.856 200.4C455.856 200.933 453.856 201.2 451.856 201.2C447.856 201.2 444.59 200.4 442.056 198.8C439.523 197.067 437.456 194.867 435.856 192.2C434.39 189.4 433.39 186.333 432.856 183C432.323 179.667 432.056 176.333 432.056 173V107H425.256V100H432.056V72.4L452.056 69.6Z" fill="#FFFCFC"/>
<path fill-rule="evenodd" clip-rule="evenodd" d="M568.106 164.642C569.079 165.547 569.825 166.64 570.29 167.843C570.755 169.045 570.928 170.328 570.797 171.6C570.138 177.487 568.889 183.304 567.066 188.975C580.144 186.169 588.131 182.92 591.759 181.217C593.817 180.252 596.187 180.023 598.416 180.574C604.804 182.153 611.388 182.947 618 182.938C655.463 182.938 683.625 158.552 683.625 130.812C683.625 103.082 655.463 78.6875 618 78.6875C580.537 78.6875 552.375 103.082 552.375 130.812C552.375 143.566 558.159 155.398 568.106 164.642ZM563.484 198.566C561.263 198.974 559.035 199.348 556.8 199.687C554.925 199.965 553.5 198.158 554.241 196.542C555.073 194.723 555.836 192.877 556.528 191.008L556.556 190.921C558.881 184.666 560.775 177.473 561.469 170.775C549.966 160.089 543 146.102 543 130.812C543 97.2266 576.581 70 618 70C659.419 70 693 97.2266 693 130.812C693 164.398 659.419 191.625 618 191.625C610.572 191.634 603.174 190.741 595.997 188.967C591.122 191.251 580.631 195.413 563.484 198.566V198.566Z" fill="#FFFCFC"/>
</svg>
