<svg width="51" height="52" viewBox="0 0 51 52" fill="none" xmlns="http://www.w3.org/2000/svg">
<path d="M44.1629 6.97124C43.9478 6.75296 43.6761 6.60183 43.3796 6.53562C43.0832 6.46941 42.7744 6.49088 42.4895 6.59749L7.42697 19.5975C7.12458 19.7144 6.86425 19.9224 6.68054 20.1938C6.49683 20.4652 6.39844 20.7871 6.39844 21.1169C6.39844 21.4466 6.49683 21.7686 6.68054 22.0399C6.86425 22.3113 7.12458 22.5193 7.42697 22.6362L22.727 28.8762L28.847 44.4762C28.962 44.771 29.159 45.025 29.4139 45.2069C29.6688 45.3888 29.9703 45.4907 30.2813 45.5C30.6034 45.4933 30.9159 45.3872 31.1777 45.1957C31.4394 45.0042 31.6381 44.7364 31.7476 44.4275L44.4976 8.67749C44.6062 8.38999 44.6324 8.07694 44.5731 7.77484C44.5139 7.47274 44.3716 7.19405 44.1629 6.97124V6.97124ZM30.2813 39.325L25.8348 27.95L33.4688 20.1662L31.2217 17.875L23.5238 25.7237L12.4313 21.125L40.3698 10.8387L30.2813 39.325Z" fill="black"/>
</svg>
